<?xml version="1.0" encoding="utf-8"?>
<!-- Generator: Adobe Illustrator 22.0.1, SVG Export Plug-In . SVG Version: 6.00 Build 0)  -->
<svg version="1.1" id="Calque_1" xmlns="http://www.w3.org/2000/svg" xmlns:xlink="http://www.w3.org/1999/xlink" x="0px" y="0px"
	 viewBox="0 0 532.5 532.5" style="enable-background:new 0 0 532.5 532.5;" xml:space="preserve">
<style type="text/css">
	.st0{fill:#005596;}
	.st1{opacity:0.85;fill:url(#SVGID_1_);enable-background:new    ;}
	.st2{opacity:0.3;fill:url(#SVGID_2_);enable-background:new    ;}
	.st3{opacity:0.8;}
	.st4{fill:url(#SVGID_3_);}
	.st5{opacity:0.25;fill:url(#SVGID_4_);enable-background:new    ;}
	.st6{opacity:0.19;fill:url(#SVGID_5_);enable-background:new    ;}
	.st7{fill:url(#SVGID_6_);}
	.st8{fill:url(#SVGID_7_);stroke:#8A8C8E;stroke-width:8.000000e-02;stroke-miterlimit:10;}
	.st9{fill:#EF3E42;}
	.st10{opacity:0.5;fill:url(#SVGID_8_);enable-background:new    ;}
	.st11{opacity:0.3;fill:url(#SVGID_9_);enable-background:new    ;}
	.st12{opacity:0.27;fill:url(#SVGID_10_);enable-background:new    ;}
	.st13{opacity:0.8;fill:none;stroke:#FFFFFF;stroke-width:0.24;stroke-miterlimit:10;enable-background:new    ;}
	.st14{fill:url(#SVGID_11_);}
	.st15{fill:url(#SVGID_12_);}
	.st16{fill:url(#SVGID_13_);}
	.st17{fill:url(#SVGID_14_);}
	.st18{opacity:0.7;fill:url(#SVGID_15_);enable-background:new    ;}
	.st19{opacity:0.7;fill:#897439;enable-background:new    ;}
	.st20{fill:url(#SVGID_16_);}
	.st21{fill:url(#SVGID_17_);}
	.st22{fill:url(#SVGID_18_);}
	.st23{fill:url(#SVGID_19_);}
	.st24{fill:url(#SVGID_20_);}
	.st25{fill:url(#SVGID_21_);}
	.st26{opacity:0.7;fill:url(#SVGID_22_);enable-background:new    ;}
	.st27{fill:#FFFFFF;}
	.st28{opacity:0.3;}
	.st29{fill:#040000;}
	.st30{opacity:0.3;fill:#040000;enable-background:new    ;}
	.st31{fill:#ADBBD0;}
	.st32{fill:url(#SVGID_23_);}
	.st33{fill:url(#SVGID_24_);}
	.st34{fill:url(#SVGID_25_);}
	.st35{fill:url(#SVGID_26_);}
	.st36{fill:url(#SVGID_27_);}
	.st37{fill:url(#SVGID_28_);}
	.st38{fill:url(#SVGID_29_);}
	.st39{fill:url(#SVGID_30_);}
	.st40{fill:url(#SVGID_31_);}
	.st41{fill:url(#SVGID_32_);}
	.st42{fill:url(#SVGID_33_);}
	.st43{fill:url(#SVGID_34_);}
	.st44{fill:url(#SVGID_35_);}
	.st45{fill:none;}
</style>
<title>psg-fc</title>
<g>
	<g id="Layer_1">
		<path class="st0" d="M266.3,67.8c-109.4,0-198.4,89-198.4,198.4s89,198.4,198.4,198.4s198.4-89,198.4-198.4S375.7,67.8,266.3,67.8
			z"/>
		
			<radialGradient id="SVGID_1_" cx="231.7509" cy="311.5288" r="346.8" gradientTransform="matrix(0.87 0 0 -0.87 0.21 468.3641)" gradientUnits="userSpaceOnUse">
			<stop  offset="0.3" style="stop-color:#939598;stop-opacity:0"/>
			<stop  offset="1" style="stop-color:#000000"/>
		</radialGradient>
		<path class="st1" d="M266.3,67.8c-109.4,0-198.4,89-198.4,198.4s89,198.4,198.4,198.4s198.4-89,198.4-198.4S375.7,67.8,266.3,67.8
			z"/>
		<path class="st0" d="M266.3,67.8c-109.4,0-198.4,89-198.4,198.4s89,198.4,198.4,198.4s198.4-89,198.4-198.4S375.7,67.8,266.3,67.8
			z M266.3,463.3c-108.6,0-197-88.4-197-197s88.4-197,197-197s197,88.4,197,197S374.9,463.3,266.3,463.3z"/>
		
			<radialGradient id="SVGID_2_" cx="-3771.8508" cy="3793.4907" r="263.09" gradientTransform="matrix(-0.87 0 0 0.87 -3084.48 -3136.5242)" gradientUnits="userSpaceOnUse">
			<stop  offset="0" style="stop-color:#44C8F5"/>
			<stop  offset="0.7" style="stop-color:#44C8F5;stop-opacity:0"/>
		</radialGradient>
		<path class="st2" d="M266.3,464.7c109.4,0,198.4-89,198.4-198.4s-89-198.4-198.4-198.4s-198.4,89-198.4,198.4
			S156.9,464.7,266.3,464.7z"/>
		<g class="st3">
			
				<linearGradient id="SVGID_3_" gradientUnits="userSpaceOnUse" x1="355.4661" y1="104.7198" x2="157.0646" y2="448.3523" gradientTransform="matrix(1 0 0 -1 10.01 542.7997)">
				<stop  offset="0" style="stop-color:#231F20"/>
				<stop  offset="4.000000e-02" style="stop-color:#231F20;stop-opacity:0.95"/>
				<stop  offset="0.63" style="stop-color:#231F20;stop-opacity:0.26"/>
				<stop  offset="1" style="stop-color:#231F20;stop-opacity:0"/>
			</linearGradient>
			<path class="st4" d="M266.3,67.8c-109.4,0-198.4,89-198.4,198.4s89,198.4,198.4,198.4s198.4-89,198.4-198.4
				S375.7,67.8,266.3,67.8z M266.3,463.3c-108.6,0-197-88.4-197-197s88.4-197,197-197s197,88.4,197,197S374.9,463.3,266.3,463.3z"/>
		</g>
		
			<radialGradient id="SVGID_4_" cx="-3785.6509" cy="3819.5508" r="190.37" gradientTransform="matrix(-0.87 0 0 0.87 -3084.48 -3136.5242)" gradientUnits="userSpaceOnUse">
			<stop  offset="0" style="stop-color:#FFFFFF"/>
			<stop  offset="0.7" style="stop-color:#FFFFFF;stop-opacity:0"/>
		</radialGradient>
		<path class="st5" d="M266.3,464.7c109.4,0,198.4-89,198.4-198.4s-89-198.4-198.4-198.4s-198.4,89-198.4,198.4
			S156.9,464.7,266.3,464.7z"/>
		
			<radialGradient id="SVGID_5_" cx="-3078.49" cy="3486.3896" r="122.16" gradientTransform="matrix(1 0 0 -1 10.01 542.7997)" gradientUnits="userSpaceOnUse">
			<stop  offset="0" style="stop-color:#FFFFFF"/>
			<stop  offset="0.7" style="stop-color:#FFFFFF;stop-opacity:0"/>
		</radialGradient>
		<path class="st6" d="M266.3,464.7c109.4,0,198.4-89,198.4-198.4s-89-198.4-198.4-198.4s-198.4,89-198.4,198.4
			S156.9,464.7,266.3,464.7z"/>
		
			<image style="overflow:visible;opacity:0.6;enable-background:new    ;" width="375" height="374" xlink:href="CD0C175A.png"  transform="matrix(0.9973 0 0 0.9973 79.5913 79.5)">
		</image>
		
			<linearGradient id="SVGID_6_" gradientUnits="userSpaceOnUse" x1="84.506" y1="339.2157" x2="428.106" y2="213.6757" gradientTransform="matrix(1 0 0 -1 10.01 542.7997)">
			<stop  offset="0" style="stop-color:#808285"/>
			<stop  offset="0.19" style="stop-color:#848689"/>
			<stop  offset="0.39" style="stop-color:#919295"/>
			<stop  offset="0.6" style="stop-color:#A5A7A9"/>
			<stop  offset="0.8" style="stop-color:#C2C3C5"/>
			<stop  offset="1" style="stop-color:#E6E7E8"/>
		</linearGradient>
		<path class="st7" d="M266.4,159.4c-59.5,0-107.8,48.3-107.8,107.7s48.4,107.7,107.8,107.7s107.8-48.3,107.8-107.7
			S325.9,159.4,266.4,159.4z M176.5,312.2c-24.9-49.5-5-109.9,44.5-134.8c9.8-4.9,20.3-8.2,31.2-9.7
			C247.8,232.2,220.9,279,176.5,312.2z M302.5,360.9c-23.2,8.9-48.9,8.9-72.2,0c-4.2-6.3-6.5-13.8-6.5-21.4
			c0-22.3,19.1-40.4,42.6-40.4s42.5,18.1,42.5,40.4C309,347.1,306.7,354.6,302.5,360.9L302.5,360.9z M356.3,312.2
			c-44.3-33.2-71.3-80-75.7-144.6c54.9,7.8,93.1,58.6,85.3,113.6C364.5,292,361.2,302.5,356.3,312.2L356.3,312.2z M395.6,137.3
			c-71.3-71.2-186.9-71.1-258.1,0.2s-71.1,186.9,0.2,258.1s186.9,71.1,258.1-0.2c34.2-34.2,53.4-80.6,53.4-128.9
			C449.2,218,429.9,171.5,395.6,137.3L395.6,137.3z M266.3,441.9c-97,0-175.6-78.7-175.6-175.8S169.3,90.4,266.3,90.4
			s175.6,78.7,175.6,175.8S363.3,441.9,266.3,441.9z"/>
		
			<radialGradient id="SVGID_7_" cx="254.8209" cy="340.7088" r="325.95" gradientTransform="matrix(0.87 0 0 -0.87 0.21 468.3641)" gradientUnits="userSpaceOnUse">
			<stop  offset="0" style="stop-color:#FFFFFF"/>
			<stop  offset="0.21" style="stop-color:#FBFBFB"/>
			<stop  offset="0.42" style="stop-color:#EEEFEF"/>
			<stop  offset="0.64" style="stop-color:#DADBDC"/>
			<stop  offset="0.86" style="stop-color:#BDBEC1"/>
			<stop  offset="1" style="stop-color:#A7A9AC"/>
		</radialGradient>
		<path class="st8" d="M266.4,158.2c-60,0-108.7,48.6-108.7,108.7s48.6,108.7,108.7,108.7c60,0,108.7-48.6,108.7-108.6
			C375,206.9,326.4,158.3,266.4,158.2z M175.8,312.4c-25.2-50-5-110.9,45-136.1c9.8-4.9,20.4-8.2,31.3-9.8
			C247.6,231.7,220.5,278.9,175.8,312.4L175.8,312.4z M302.8,361.5c-23.4,9-49.3,9-72.7,0c-4.2-6.4-6.5-13.9-6.5-21.6
			c0-22.5,19.2-40.7,42.9-40.7s42.9,18.2,42.9,40.7C309.3,347.6,307,355.1,302.8,361.5L302.8,361.5z M357,312.4
			c-44.7-33.5-71.9-80.7-76.3-145.9c55.4,7.9,94,59.2,86.1,114.6C365.3,292,362,302.6,357,312.4z M396.6,136
			C324.6,64,208,64.1,136,136s-71.9,188.6,0.1,260.6s188.6,71.9,260.6-0.1c34.5-34.6,53.9-81.4,53.9-130.3
			C450.7,217.4,431.3,170.4,396.6,136L396.6,136z M266.3,443.2c-97.8,0-177-79.2-177-177s79.2-177,177-177s177,79.2,177,177
			S364,443.2,266.3,443.2z"/>
		
			<image style="overflow:visible;enable-background:new    ;" width="181" height="200" xlink:href="CD0C175D.png"  transform="matrix(0.9945 0 0 0.9945 176.14 160.0925)">
		</image>
		<path class="st9" d="M350.9,322.6c-8.1,12.3-18.8,22.8-31.4,30.6c0.5-2.7,0.7-5.5,0.7-8.2c0-27.9-24.2-50.6-54.1-50.6
			S212,317,212,344.9c0,2.8,0.2,5.5,0.7,8.2c-12.6-7.8-23.3-18.2-31.4-30.6c18.8-14.9,34.7-33.1,47.2-53.6h75
			C316.1,289.5,332.1,307.6,350.9,322.6z M275.4,166c-3-0.3-6.1-0.4-9.2-0.4s-6.2,0.2-9.3,0.4c-0.7,38.4-10.1,71.2-25.9,99h70.3
			C285.4,237.2,276,204.4,275.4,166z"/>
		
			<linearGradient id="SVGID_8_" gradientUnits="userSpaceOnUse" x1="190.9277" y1="337.6429" x2="299.5274" y2="182.5333" gradientTransform="matrix(1 0 0 -1 10.01 542.7997)">
			<stop  offset="0.3" style="stop-color:#FFFFFF"/>
			<stop  offset="0.36" style="stop-color:#F6F6F6"/>
			<stop  offset="0.46" style="stop-color:#DEDEDE"/>
			<stop  offset="0.58" style="stop-color:#B6B6B6"/>
			<stop  offset="0.72" style="stop-color:#7F7F7F"/>
			<stop  offset="0.88" style="stop-color:#393939"/>
			<stop  offset="1" style="stop-color:#000000"/>
		</linearGradient>
		<path class="st10" d="M350.9,322.6c-8.1,12.3-18.8,22.8-31.4,30.6c0.5-2.7,0.7-5.5,0.7-8.2c0-27.9-24.2-50.6-54.1-50.6
			S212,317,212,344.9c0,2.8,0.2,5.5,0.7,8.2c-12.6-7.8-23.3-18.2-31.4-30.6c18.8-14.9,34.7-33.1,47.2-53.6h75
			C316.1,289.5,332.1,307.6,350.9,322.6z M275.4,166c-3-0.3-6.1-0.4-9.2-0.4s-6.2,0.2-9.3,0.4c-0.7,38.4-10.1,71.2-25.9,99h70.3
			C285.4,237.2,276,204.4,275.4,166z"/>
		
			<radialGradient id="SVGID_9_" cx="228.5009" cy="293.2488" r="152.02" gradientTransform="matrix(0.87 0 0 -0.87 0.21 468.3641)" gradientUnits="userSpaceOnUse">
			<stop  offset="0" style="stop-color:#FFFFFF"/>
			<stop  offset="1.000000e-02" style="stop-color:#FFFFFF;stop-opacity:0.98"/>
			<stop  offset="0.27" style="stop-color:#FFFFFF;stop-opacity:0.57"/>
			<stop  offset="0.48" style="stop-color:#FFFFFF;stop-opacity:0.26"/>
			<stop  offset="0.63" style="stop-color:#FFFFFF;stop-opacity:7.000000e-02"/>
			<stop  offset="0.7" style="stop-color:#FFFFFF;stop-opacity:0"/>
		</radialGradient>
		<path class="st11" d="M350.9,322.6c-8.1,12.3-18.8,22.8-31.4,30.6c0.5-2.7,0.7-5.5,0.7-8.2c0-27.9-24.2-50.6-54.1-50.6
			S212,317,212,344.9c0,2.8,0.2,5.5,0.7,8.2c-12.6-7.8-23.3-18.2-31.4-30.6c18.8-14.9,34.7-33.1,47.2-53.6h75
			C316.1,289.5,332.1,307.6,350.9,322.6z M275.4,166c-3-0.3-6.1-0.4-9.2-0.4s-6.2,0.2-9.3,0.4c-0.7,38.4-10.1,71.2-25.9,99h70.3
			C285.4,237.2,276,204.4,275.4,166z"/>
		
			<radialGradient id="SVGID_10_" cx="204.34" cy="321.4098" r="95.07" gradientTransform="matrix(1 0 0 -1 10.01 542.7997)" gradientUnits="userSpaceOnUse">
			<stop  offset="0" style="stop-color:#FFFFFF"/>
			<stop  offset="1.000000e-02" style="stop-color:#FFFFFF;stop-opacity:0.98"/>
			<stop  offset="0.27" style="stop-color:#FFFFFF;stop-opacity:0.57"/>
			<stop  offset="0.48" style="stop-color:#FFFFFF;stop-opacity:0.26"/>
			<stop  offset="0.63" style="stop-color:#FFFFFF;stop-opacity:7.000000e-02"/>
			<stop  offset="0.7" style="stop-color:#FFFFFF;stop-opacity:0"/>
		</radialGradient>
		<path class="st12" d="M350.9,322.6c-8.1,12.3-18.8,22.8-31.4,30.6c0.5-2.7,0.7-5.5,0.7-8.2c0-27.9-24.2-50.6-54.1-50.6
			S212,317,212,344.9c0,2.8,0.2,5.5,0.7,8.2c-12.6-7.8-23.3-18.2-31.4-30.6c18.8-14.9,34.7-33.1,47.2-53.6h75
			C316.1,289.5,332.1,307.6,350.9,322.6z M275.4,166c-3-0.3-6.1-0.4-9.2-0.4s-6.2,0.2-9.3,0.4c-0.7,38.4-10.1,71.2-25.9,99h70.3
			C285.4,237.2,276,204.4,275.4,166z"/>
		<path class="st13" d="M350.9,322.6c-8.1,12.3-18.8,22.8-31.4,30.6"/>
		
			<image style="overflow:visible;opacity:0.9;enable-background:new    ;" width="51" height="49" xlink:href="CD0C175C.png"  transform="matrix(0.9796 0 0 0.9796 241.0604 310.94)">
		</image>
		
			<linearGradient id="SVGID_11_" gradientUnits="userSpaceOnUse" x1="244.5446" y1="217.3018" x2="258.4846" y2="185.0318" gradientTransform="matrix(1 0 0 -1 10.01 542.7997)">
			<stop  offset="0" style="stop-color:#D0B15E"/>
			<stop  offset="0.26" style="stop-color:#BD9A54"/>
			<stop  offset="1" style="stop-color:#9C844D"/>
		</linearGradient>
		<path class="st14" d="M269.7,352.1c-1.2-0.7-2.1-1.9-2.4-3.3c-0.1-0.5-0.6-0.9-1.2-0.9c-0.6,0-1.1,0.4-1.2,0.9
			c-0.3,1.4-1.2,2.5-2.4,3.3c-0.2,0.1-0.2,0.2-0.1,0.4c0.8,1.7,2,3.2,3.4,4.4c0.2,0.2,0.3,0.2,0.3,0.2s0.1,0,0.3-0.2
			c1.4-1.2,2.6-2.7,3.4-4.4C270,352.3,270,352.2,269.7,352.1z"/>
		
			<linearGradient id="SVGID_12_" gradientUnits="userSpaceOnUse" x1="253.2816" y1="221.0748" x2="267.2116" y2="188.7948" gradientTransform="matrix(1 0 0 -1 10.01 542.7997)">
			<stop  offset="0" style="stop-color:#D0B15E"/>
			<stop  offset="0.26" style="stop-color:#BD9A54"/>
			<stop  offset="1" style="stop-color:#9C844D"/>
		</linearGradient>
		<path class="st15" d="M273.2,329.3c0-4.1-5.4-17.1-7-17.1c-0.2,0-0.3,0.1-0.4,0.2c-2,1.6-6.7,13-6.7,16.9c0,3.1,6.2,11.2,6.2,15.6
			l0,0c0.1,0.5,0.5,0.8,0.9,0.7c0.4,0,0.7-0.3,0.7-0.7l0,0C267,340.5,273.2,332.4,273.2,329.3z"/>
		
			<linearGradient id="SVGID_13_" gradientUnits="userSpaceOnUse" x1="236.5032" y1="213.8287" x2="250.4432" y2="181.5587" gradientTransform="matrix(1 0 0 -1 10.01 542.7997)">
			<stop  offset="0" style="stop-color:#D0B15E"/>
			<stop  offset="0.26" style="stop-color:#BD9A54"/>
			<stop  offset="1" style="stop-color:#9C844D"/>
		</linearGradient>
		<path class="st16" d="M262.6,344.6c-2.9-7.7-8-11.9-13.2-11.9c-4,0.1-7.1,3.5-6.9,7.5c0.1,3.8,3.2,6.8,6.9,6.9
			c1.1,0,2.2-0.5,3-1.3c0.7-0.7,1-1.6,0.7-2.6c-0.1-0.2-0.3-0.3-0.5-0.2h-0.4c-1.3,0.1-2.5-0.9-2.6-2.2s0.9-2.5,2.2-2.6
			c0.1,0,0.2,0,0.3,0c2.4,0,6.5,2.3,8.8,7.1l0,0l0,0l0,0c0.1,0.3,0.5,0.5,0.8,0.5c0.5,0,0.9-0.4,0.9-0.9c0,0,0,0,0,0
			C262.6,344.8,262.6,344.7,262.6,344.6z"/>
		
			<linearGradient id="SVGID_14_" gradientUnits="userSpaceOnUse" x1="259.5686" y1="223.7944" x2="273.5086" y2="191.5144" gradientTransform="matrix(1 0 0 -1 10.01 542.7997)">
			<stop  offset="0" style="stop-color:#D0B15E"/>
			<stop  offset="0.26" style="stop-color:#BD9A54"/>
			<stop  offset="1" style="stop-color:#9C844D"/>
		</linearGradient>
		<path class="st17" d="M282.6,332.6c-5.3,0-10.3,4.2-13.2,11.9c0,0.1-0.1,0.2-0.1,0.4c0,0.5,0.4,0.9,0.9,0.9c0,0,0,0,0,0
			c0.3,0,0.6-0.2,0.8-0.5l0,0l0,0l0,0c2.2-4.8,6.4-7.1,8.8-7.1c1.3-0.1,2.5,0.9,2.6,2.2s-0.9,2.5-2.2,2.6c-0.1,0-0.2,0-0.3,0h-0.4
			c-0.2-0.1-0.4,0-0.5,0.2c-0.2,0.9,0.1,1.9,0.7,2.6c0.8,0.8,1.9,1.2,3,1.3c4-0.1,7.1-3.5,6.9-7.5
			C289.4,335.9,286.3,332.9,282.6,332.6L282.6,332.6z"/>
		
			<linearGradient id="SVGID_15_" gradientUnits="userSpaceOnUse" x1="247.2788" y1="227.374" x2="260.6188" y2="190.724" gradientTransform="matrix(1 0 0 -1 10.01 542.7997)">
			<stop  offset="0.15" style="stop-color:#FFE293"/>
			<stop  offset="0.3" style="stop-color:#FFDF8F"/>
			<stop  offset="0.46" style="stop-color:#FED782"/>
			<stop  offset="0.62" style="stop-color:#FCC96E"/>
			<stop  offset="0.79" style="stop-color:#FAB651"/>
			<stop  offset="0.95" style="stop-color:#F89D2C"/>
			<stop  offset="1" style="stop-color:#F7941E"/>
		</linearGradient>
		<path class="st18" d="M253.1,343.2c0,0.1,0,0.2,0.1,0.3c0,0.1,0,0.2-0.1,0.4c-0.1-0.2-0.3-0.3-0.5-0.2c-0.1,0-0.3,0-0.4,0
			c-1.3,0-2.4-1.1-2.4-2.4c0-0.1,0-0.2,0-0.3c0.2,1.2,1.2,2.1,2.4,2.1h0.4C252.8,342.9,253,343,253.1,343.2
			C253.1,343.2,253.1,343.2,253.1,343.2z M282.6,332.6c-5.3,0-10.3,4.2-13.2,11.9c0,0,0,0,0,0.1c0,0.1-0.1,0.2-0.1,0.3
			c0,0.1,0,0.2,0.1,0.4c0,0,0,0,0-0.1l0.1-0.4l0,0c2.9-7.5,7.9-11.6,13.1-11.6c3.7,0,6.8,2.8,7.1,6.5c0-0.1,0-0.2,0-0.3
			c0,0.1,0,0.2,0,0.3C289.8,335.9,286.6,332.7,282.6,332.6z M279.8,343h-0.4c-0.2-0.1-0.4,0-0.5,0.2c0,0.1-0.1,0.2-0.1,0.3l0,0
			c0,0,0,0.1,0,0.1v0.2c0,0.1,0,0.2,0,0.2l0,0c0-0.1,0-0.2,0.1-0.3l0,0c0.1-0.2,0.3-0.3,0.5-0.2c0.1,0,0.3,0,0.4,0
			c1.3,0,2.4-1.1,2.4-2.4c0-0.1,0-0.2,0-0.3C282,342.1,281,343,279.8,343z M259.1,328.9c0,0.2,0,0.3,0,0.5c0,0.1,0,0.1,0,0.2
			c0-0.1,0-0.3,0-0.4l0,0c0.5-4.4,4.7-14.5,6.6-16c0.1-0.1,0.3-0.2,0.4-0.2c1.5,0,6.4,11.4,7,16.2c0-0.1,0-0.2,0-0.3
			c-0.4-4.6-5.5-16.6-7-16.6c-0.2,0-0.3,0.1-0.4,0.2c-2,1.6-6.7,13-6.7,16.9C259,329.2,259,329,259.1,328.9L259.1,328.9z
			 M262.6,344.6c-2.9-7.7-8-12-13.2-12c-4,0-7.2,3.2-7.2,7.2c0,0,0,0,0,0c0-0.1,0-0.2,0-0.3l0,0c0,0.1,0,0.2,0,0.3s0,0.2,0,0.3
			c0-0.1,0-0.2,0-0.3l0,0c0.3-3.7,3.4-6.5,7.1-6.5c5.2,0,10.1,4.1,13.1,11.6C262.5,344.8,262.6,344.7,262.6,344.6z M269.9,352.3
			C269.9,352.2,269.9,352.2,269.9,352.3L269.9,352.3l-0.1-0.1l0,0c-1.2-0.7-2.1-1.9-2.4-3.3c-0.1-0.5-0.6-0.9-1.2-0.9
			c-0.6,0-1.1,0.4-1.2,0.9c-0.3,1.4-1.2,2.6-2.4,3.3l0,0l-0.1,0l0,0c0,0,0,0-0.1,0.1v0.1l0.5,0.2c1.1-0.7,1.8-1.8,2.1-3.1
			c0.2-0.5,0.6-0.9,1.2-0.9c0.6,0,1,0.4,1.2,0.9c0.3,1.3,1.1,2.4,2.1,3.1l0,0l0.5-0.2c0,0,0,0,0-0.1S269.9,352.3,269.9,352.3z"/>
		<path class="st19" d="M279.8,338.2c-2.4,0-6.5,2.3-8.8,7.1l0,0l0,0l0,0c-0.1,0.3-0.5,0.5-0.8,0.5c-0.4,0-0.7-0.2-0.8-0.6l0,0
			c0.1-0.1,0.1-0.3,0.2-0.4c0.3,0.4,0.9,0.4,1.2,0.1c0.1-0.1,0.2-0.2,0.2-0.3l0,0l0,0l0,0c2.2-4.8,6.4-7.1,8.8-7.1
			c1.3,0,2.4,1.1,2.4,2.4c0,0.1,0,0.2,0,0.3C282,339.1,281,338.2,279.8,338.2z M253.2,343.5c0,0.1,0,0.2-0.1,0.4l0,0
			c-0.1,0.5-0.4,0.9-0.7,1.3c-0.8,0.8-1.9,1.2-3,1.2c-3.7,0-6.8-2.8-7.1-6.5v0.3c0-0.1,0-0.2,0-0.3c0,4,3.2,7.2,7.2,7.2c0,0,0,0,0,0
			c1.1,0,2.2-0.5,3-1.3c0.4-0.5,0.7-1,0.8-1.7l0,0c0-0.1,0-0.2,0-0.3c0,0,0-0.1,0-0.1v-0.1C253.2,343.6,253.2,343.5,253.2,343.5z
			 M289.8,339.5c0,0.1,0,0.2,0,0.3l0,0c-0.3,3.7-3.4,6.5-7.1,6.5c-1.1,0-2.2-0.5-3-1.2c-0.3-0.4-0.6-0.8-0.7-1.3l0,0
			c0,0.1-0.1,0.2-0.1,0.3c0.1,0.6,0.4,1.2,0.8,1.7c0.8,0.8,1.9,1.2,3,1.3c4,0,7.2-3.2,7.2-7.1l0,0
			C289.8,339.7,289.8,339.6,289.8,339.5L289.8,339.5z M265.3,344.9c0.1,0.5,0.5,0.8,0.9,0.7c0.4,0,0.7-0.3,0.7-0.7l0,0
			c0-4.4,6-12.2,6.2-15.5c0-0.1,0-0.1,0-0.2c0-0.1,0-0.3,0-0.5c0,0.1,0,0.2,0,0.3l0,0c-0.5,3.4-6.1,10.9-6.2,15.2l0,0
			c-0.1,0.5-0.5,0.8-0.9,0.7c-0.4,0-0.7-0.3-0.7-0.7l0,0c0-4.2-5.7-11.8-6.2-15.2c0,0.1,0,0.3,0,0.4c0-0.1,0-0.1,0-0.2
			C259.1,332.4,265.4,340.5,265.3,344.9L265.3,344.9z M269.5,352.5c-0.8,1.4-1.8,2.6-3,3.7c-0.2,0.2-0.3,0.2-0.3,0.2s-0.1,0-0.3-0.2
			c-1.2-1-2.2-2.3-3-3.7l-0.5-0.2c0,0,0,0.1,0,0.1c0,0.1,0.1,0.2,0.1,0.3c0.8,1.6,1.9,3,3.3,4.1c0.2,0.2,0.3,0.2,0.3,0.2
			s0.1,0,0.3-0.2c1.3-1.2,2.5-2.6,3.3-4.1l0,0c0-0.1,0.1-0.2,0.1-0.3c0,0,0-0.1,0-0.1L269.5,352.5L269.5,352.5z M262.6,345.3
			L262.6,345.3z M262.6,345.1L262.6,345.1c0,0,0-0.1,0-0.1c0-0.1,0-0.2-0.1-0.3c0,0.1-0.1,0.2-0.2,0.2l0.2,0.4l0,0
			C262.6,345.3,262.6,345.2,262.6,345.1L262.6,345.1z M262.6,345.3l-0.1-0.4c-0.3,0.4-0.9,0.4-1.2,0.1c-0.1-0.1-0.2-0.2-0.2-0.3l0,0
			l0,0c-2.2-4.8-6.4-7.1-8.8-7.1c-1.3,0-2.4,1.1-2.4,2.4c0,0.1,0,0.2,0,0.3c0.2-1.2,1.2-2.1,2.4-2.1c2.4,0,6.5,2.3,8.8,7.1l0,0l0,0
			c0.1,0.3,0.5,0.5,0.8,0.5C262.1,345.8,262.5,345.6,262.6,345.3L262.6,345.3z"/>
		
			<image style="overflow:visible;opacity:0.8;enable-background:new    ;" width="247" height="91" xlink:href="CD0C1753.png"  transform="matrix(0.989 0 0 0.989 141.9171 99.96)">
		</image>
		
			<linearGradient id="SVGID_16_" gradientUnits="userSpaceOnUse" x1="176.0118" y1="360.8734" x2="149.4334" y2="406.9006" gradientTransform="matrix(1 0 0 -1 10.01 542.7997)">
			<stop  offset="0" style="stop-color:#848689"/>
			<stop  offset="0.85" style="stop-color:#808285"/>
		</linearGradient>
		<path class="st20" d="M188.5,137.8c-0.9-1.6-2-3.1-3.4-4.3c-6.4-5.8-16.7-5-22.5,1.3l-19,20.9v1.3l33.1,30.2l0.6-0.7
			c1.9-2.1,3.4-3.7,5.9-6c0,0,0-1.2-0.1-1.2l-10.3-9.4l0.7,0.6l7.2-8.3l3.6-4.1c1.3-1.3,2.4-2.8,3.4-4.4c1.9-3.2,2.7-7,2.3-10.7
			C189.9,141.3,189.4,139.5,188.5,137.8z M179.4,150.9L167,164.5l-11.2-10.1l0.7,0.6l9.8-11.5c0.8-0.9,1.6-1.9,2.5-2.9
			c0.8-0.9,1.9-1.5,3.1-1.9c2.4-0.7,5.1-0.2,7,1.5C182,143.1,182.2,147.8,179.4,150.9z"/>
		
			<linearGradient id="SVGID_17_" gradientUnits="userSpaceOnUse" x1="282.0092" y1="387.5645" x2="249.9292" y2="443.1244" gradientTransform="matrix(1 0 0 -1 10.01 542.7997)">
			<stop  offset="0" style="stop-color:#797A7D"/>
			<stop  offset="0.1" style="stop-color:#757679"/>
			<stop  offset="0.48" style="stop-color:#696A6C"/>
			<stop  offset="0.85" style="stop-color:#656668"/>
		</linearGradient>
		<path class="st21" d="M282.6,101.7h-26.1V148c3.4-0.3,6.4-0.4,9.2-0.4h0.9v-13.8h11.2l9.4,14.8c0.4,0.4,0.8,0.8,1.3,1.2
			c0.5,0.1,1,0.2,1.5,0.3c1,0.2,1.9,0.4,2.9,0.6s1.9,0.5,2.9,0.7l1.4,0.4c0.6-0.1,1.1-0.3,1.7-0.5l-11.9-19c1.8-0.1,3.6-0.6,5.1-1.5
			c1.6-0.8,3.1-2,4.3-3.4c1.2-1.4,2.1-3,2.7-4.8c0.6-1.7,0.7-3.6,0.3-5.4C299.3,108.7,291.2,101.7,282.6,101.7z M282.6,124.8h-16
			v-14.1l16-0.2c4.2,0,7.5,2.6,7.5,6.7C290.1,121.4,286.8,124.8,282.6,124.8z"/>
		
			<linearGradient id="SVGID_18_" gradientUnits="userSpaceOnUse" x1="360.4774" y1="362.0481" x2="334.8258" y2="406.4809" gradientTransform="matrix(1 0 0 -1 10.01 542.7997)">
			<stop  offset="0" style="stop-color:#434345"/>
			<stop  offset="5.000000e-02" style="stop-color:#48484A"/>
			<stop  offset="0.32" style="stop-color:#5B5C5E"/>
			<stop  offset="0.59" style="stop-color:#67686B"/>
			<stop  offset="0.85" style="stop-color:#6B6C6F"/>
		</linearGradient>
		<path class="st22" d="M347.8,135c-6,5.6-2.6,14.3,2.6,19.7l5,5.3c5.1,5.4,9.6,10.8,5.5,14.2c-4.4,3.6-16.7-5.5-24.1-21.1l-6.6,5
			c0.5,2.1,1.1,4.1,2,6.1c1.1,1.8,2.3,3.6,3.5,5.3c2.5,3.4,5.5,6.5,8.8,9.1c3.3,2.8,7.2,4.8,11.3,5.9c2.1,0.5,4.4,0.7,6.5,0.4
			c2.2-0.4,4.2-1.6,5.5-3.5c6.8-6.3,4.4-15.6-6.4-26.9l-4.5-4.7c-0.9-1.3-1.6-2.7-2-4.2c-0.3-0.8-0.3-1.6,0-2.3
			c0.2-0.5,0.6-1,1.1-1.2c1.3-0.6,2.9,0,4.4,0.6c1.5,0.6,2.9,1.5,4.3,2.5c2.7,2,5.1,4.4,7.2,7c2.2,2.5,3.8,5.5,4.9,8.6l0.4,1.3
			l1.1-0.8c0.3-0.2,0.5-0.4,0.8-0.6c0.3-0.2,0.5-0.4,0.8-0.6l3.7-2.9c0.2-0.6,0.4-0.9,0.5-1.4C378.9,140.6,357.8,125.5,347.8,135z"
			/>
		
			<linearGradient id="SVGID_19_" gradientUnits="userSpaceOnUse" x1="319.8493" y1="391.4344" x2="301.5881" y2="423.0664" gradientTransform="matrix(1 0 0 -1 10.01 542.7997)">
			<stop  offset="0" style="stop-color:#58595B"/>
			<stop  offset="5.000000e-02" style="stop-color:#5D5E60"/>
			<stop  offset="0.32" style="stop-color:#707274"/>
			<stop  offset="0.59" style="stop-color:#7C7E81"/>
			<stop  offset="0.85" style="stop-color:#808285"/>
		</linearGradient>
		<path class="st23" d="M333.6,115.7c-2.9-1.3-5.8-2.5-8.8-3.6l-17.1,41.2c0,0-0.3,0.9-0.4,0.9l0.3,1.1c2.7,1,5.4,2.1,8,3.4l0.9,0.4
			l17-41L333.6,115.7z"/>
		
			<linearGradient id="SVGID_20_" gradientUnits="userSpaceOnUse" x1="219.667" y1="381.8015" x2="192.9043" y2="428.1562" gradientTransform="matrix(1 0 0 -1 10.01 542.7997)">
			<stop  offset="0" style="stop-color:#808285"/>
			<stop  offset="0.85" style="stop-color:#808285"/>
		</linearGradient>
		<path class="st24" d="M250.2,146.9l-34.3-37.7c-3.2,1-6.4,2.2-9.6,3.4l-3.3,50.7c0,0.2-0.1,1.8-0.1,1.8c3-1.9,7.2-4,10.4-5.6
			l0.5-11.9c5.9-2.5,12-4.7,18.2-6.3l7.8,8.9c3.5-0.8,8.3-1.5,11.8-1.9l-0.7-0.8L250.2,146.9z M214.1,138.4l0.7-16.8l11,12.7
			C221.9,135.5,218,136.9,214.1,138.4L214.1,138.4z"/>
		
			<linearGradient id="SVGID_21_" gradientUnits="userSpaceOnUse" x1="244.4974" y1="440.7773" x2="261.749" y2="342.9279" gradientTransform="matrix(1 0 0 -1 10.01 542.7997)">
			<stop  offset="0.15" style="stop-color:#FFFFFF"/>
			<stop  offset="0.4" style="stop-color:#FBFBFB"/>
			<stop  offset="0.65" style="stop-color:#EEEFEF"/>
			<stop  offset="0.91" style="stop-color:#DADBDC"/>
			<stop  offset="1" style="stop-color:#D1D3D4"/>
		</linearGradient>
		<path class="st25" d="M162.7,134.9l-19,20.9l33.1,30.1c2.1-2.3,4.3-4.4,6.5-6.6l-10.3-9.4l12.8-14c5.8-6.4,5.8-16.6-0.6-22.3
			C178.8,127.8,168.5,128.5,162.7,134.9z M179.4,150.9L167,164.5l-11.2-10.1l12.4-13.6c2.7-3.1,7.5-3.5,10.6-0.8
			c3.1,2.7,3.5,7.5,0.8,10.6C179.6,150.7,179.5,150.8,179.4,150.9z M206.4,112.7l-3.4,51.7c3.1-1.9,6.2-3.6,9.4-5.2l0.5-12.1
			c6.3-2.8,12.8-5,19.4-6.8l7.9,9.1c3.5-0.8,7-1.4,10.6-1.8l-35-38.3C212.7,110.3,209.5,111.4,206.4,112.7L206.4,112.7z
			 M213.3,138.8l0.8-19.5l12.8,14.7C222.2,135.3,217.7,136.9,213.3,138.8L213.3,138.8z M299.4,117.3c0-8.6-8.1-15.6-16.7-15.6h-26.2
			V147c3-0.2,6.1-0.4,9.2-0.4l0,0v-13.7h11.6l10,15.7c3.9,0.7,7.8,1.6,11.6,2.7l-11.9-19C293.7,130.5,299.3,124.4,299.4,117.3
			L299.4,117.3z M282.6,124.8h-17v-15h16.9c4.1-0.4,7.8,2.7,8.2,6.8c0.4,4.1-2.7,7.8-6.8,8.2C283.5,124.8,283,124.8,282.6,124.8
			L282.6,124.8z M357.1,149.8l4.5,4.7c10.7,11.3,13.2,20.5,6.4,26.9c-2.7,2.6-6.9,3.2-11,2.4c-5.3-1.1-11.2-4.8-16.7-10.5
			c-4.2-4.4-7.6-9.5-10-15.1l6.6-5c7.4,15.6,19.7,24.8,24.1,21.1c4.1-3.4-0.4-8.8-5.5-14.2l-5-5.3c-5.2-5.5-8.6-14.1-2.6-19.7
			c10-9.5,31.1,5.6,36.4,20.7c0,0-4.4,3.3-6.4,4.8c-2.4-8.4-14.9-20.9-21.8-19.3C354.1,141.6,352.1,144.6,357.1,149.8L357.1,149.8z
			 M333.7,115.7l-17.5,42.1c-2.9-1.3-5.8-2.5-8.7-3.6l17.5-42.1C327.9,113.2,330.8,114.4,333.7,115.7L333.7,115.7z"/>
		
			<linearGradient id="SVGID_22_" gradientUnits="userSpaceOnUse" x1="293.0938" y1="444.7914" x2="222.9039" y2="323.2116" gradientTransform="matrix(1 0 0 -1 10.01 542.7997)">
			<stop  offset="0" style="stop-color:#000000"/>
			<stop  offset="1" style="stop-color:#939598"/>
		</linearGradient>
		<path class="st26" d="M232.3,140.3l7.9,9.1l-0.5,0.9l-7.8-9L232.3,140.3z M212.4,159.1l0.9,0.4l0.5-11.9l-0.9-0.6L212.4,159.1z
			 M213.2,138.8l0.9-0.4l0.7-16.8l-0.8-2.3L213.2,138.8z M178.9,140.3c-3.1-2.8-7.8-2.6-10.6,0.5l-12.4,13.6l0.7,0.6l9.8-11.5
			c0.8-0.9,1.6-1.9,2.5-2.9c0.8-0.9,1.9-1.5,3.1-1.9C174.3,138.1,177,138.6,178.9,140.3z M188.5,137.8l-0.4-0.5
			c3.2,6.1,2.2,13.5-2.4,18.6L172.9,170l0.7,0.6l7.2-8.3l3.6-4.1c1.3-1.3,2.4-2.8,3.4-4.4c1.9-3.2,2.7-7,2.3-10.7
			C189.9,141.3,189.4,139.5,188.5,137.8z M176.8,185.9l0.1,1.3l0.6-0.7c1.9-2.1,3.4-3.7,5.9-6l-0.1-1.2
			C181,181.5,178.8,183.7,176.8,185.9z M316.6,159l17-41v-2.4l-17.5,42.1L316.6,159z M377.8,160.5l-0.5,1.5l1.1-0.8
			c0.3-0.2,0.5-0.4,0.8-0.6c0.3-0.2,0.5-0.4,0.8-0.6l3.7-2.9l0.5-1.4C384.2,155.7,379.8,158.9,377.8,160.5L377.8,160.5z
			 M286.9,132.3c1.8-0.1,3.6-0.6,5.2-1.5c1.6-0.8,3.1-2,4.3-3.4c1.2-1.4,2.1-3,2.7-4.8c0.6-1.7,0.7-3.6,0.3-5.4
			C299.3,124.4,293.7,130.5,286.9,132.3L286.9,132.3z M265.7,109.7v15h0.9v-14.1L265.7,109.7z M265.7,146.6l0.9,0.9v-13.8l-0.9-0.9
			V146.6z"/>
		<path class="st27" d="M175.7,387.3l-2.2-1.6l1.8-6.1l-5.8-4.9l-5.8,2.7l-1.9-1.8l17-8l2.1,1.8L175.7,387.3z M177.9,370.8l-5.9,2.8
			l4.1,3.5L177.9,370.8z"/>
		<path class="st27" d="M192.5,378l-9.5,14.4l-2-1.3l9.5-14.4L192.5,378z"/>
		<path class="st27" d="M200,382.7l2.9,16.1l0,0l6-11.4l2.2,1.1l-7.9,15.1l-2.1-1l-3-16.3l0,0l-6.1,11.6l-2.1-1.2l7.9-15.1
			L200,382.7z"/>
		<path class="st27" d="M229.4,395.3l-0.8,2.3l-5.6-2l-4.8,13.9l-2.3-0.8l4.8-13.9l-5.6-1.9l0.8-2.3L229.4,395.3z"/>
		<path class="st27" d="M266.7,408l7.8,0.1l-0.1,4.5c-0.1,3-3.4,5-7.7,5c-4.5-0.1-9.2-3.3-9.1-9c0.1-4.9,4-8.8,9.5-8.7
			c2.7,0,5.3,1.2,7.1,3.2l-1.7,1.7c-1.3-1.6-3.2-2.5-5.2-2.5c-4.5-0.1-7.2,2.8-7.2,6.4c-0.1,3.3,2.5,6.4,6.8,6.4
			c3,0,5.1-1.3,5.1-2.7v-1.9l-5.3-0.1L266.7,408z"/>
		<path class="st27" d="M293.2,397.7l0.4,2.4l-11.4,1.6l0.6,4.4l5.7-0.8l0.4,2.4l-5.7,0.8l0.7,5.1l11.8-1.7l0.4,2.4l-14.2,2
			l-2.4-16.8L293.2,397.7z"/>
		<path class="st27" d="M308.7,393.4c2.6-0.8,5.5-0.2,6.5,3.1c1.1,3.5-1,5.4-2.3,5.9l5.3,5.7l-2.6,0.9l-5.3-5.8l-6,1.8l2,6.8
			l-2.3,0.7l-4.9-16.3L308.7,393.4z M302.1,397.9l1.4,4.8l7.3-2.2c1.8-0.5,2.5-1.7,2-3.3c-0.6-1.9-2.1-1.9-3.5-1.5L302.1,397.9z"/>
		<path class="st27" d="M361.4,383.6l-2.1,1.7l-5.2-3.2l-6.2,4.4l1.2,6.1l-2.2,1.4l-3.6-18.3l2.2-1.6L361.4,383.6z M346,377.5
			l1.3,6.4l4.4-3.1L346,377.5z"/>
		<path class="st27" d="M356,365.7l11.6,12.5l-1.8,1.6l-11.6-12.5L356,365.7z"/>
		<path class="st27" d="M362.8,359.1l16.4,1.1l0,0l-9.6-8.6l1.6-1.8l12.6,11.4l-1.4,1.8l-16.5-1.1l0,0l9.7,8.8l-1.7,1.8l-12.7-11.4
			L362.8,359.1z"/>
		<polygon class="st27" points="334,381.9 331.8,383 331.5,395.1 321.5,388.3 319.3,389.4 326.7,404.7 329,403.7 323.8,392.8 
			323.8,392.8 333.7,399.5 334.1,387.6 334.1,387.6 339.9,398.1 342,396.9 		"/>
		<path class="st27" d="M169.3,360c-1.4-5.2-6.7-10.3-10.6-10.3c-0.8,0-1.7,0.3-2.4,0.8c-0.8,0.6-1.3,1.4-1.4,2.4
			c-0.1,1.8,0.5,3.7,1.6,5.1l1.8,2.4c1.4,1.9,2.8,3.8,2.5,5.4c-0.1,0.6-0.5,1.2-1,1.5c-0.3,0.2-0.7,0.3-1.1,0.3
			c-2.5,0-6.6-4.4-8.7-10.7v-0.1l-1.8,1.7l0,0l0,0c0.7,2.4,1.8,4.6,3.3,6.5c1.5,2.2,3.6,3.9,6.1,4.9c0.6,0.2,1.3,0.3,1.9,0.3
			c0.8,0,1.6-0.2,2.3-0.7c0.9-0.6,1.6-1.6,1.7-2.7c0.3-2-0.8-4.6-3.2-7.9l-1.6-2.1c-1.3-1.7-1.2-2.8-0.9-3.5c0.2-0.5,0.7-0.9,1.3-1
			h0.3c2.9,0,7.1,4.8,8.1,8.6v0.1l0.1,0L169.3,360l0.1,0L169.3,360z"/>
		<path class="st27" d="M244,408.7l-6-1.3l0.6-2.4l6.1,1.4L244,408.7z"/>
		<g class="st28">
			<path class="st29" d="M176,388.1l-2.6-2l2.3-5.7l-5.8-4.9l-5.8,2.7l-2.8-2.5l17.7-8.2l2.5,2.1L176,388.1z M178.2,371.5l-5.9,2.8
				l4.1,3.5L178.2,371.5z"/>
			<path class="st29" d="M193.2,378.1l-9.9,15l-2.8-1.8l9.9-15L193.2,378.1z"/>
			<path class="st29" d="M200,382.5l3.2,17.1l0,0l6.4-12.1l2.2,1.1l-8.3,15.7l-2.3-1.1l-2.9-16.3l0.1,0.1l-6.1,11.6l-2.8-1.6
				l7.9-15.1L200,382.5z"/>
			<path class="st29" d="M229.9,395.2l-1.1,3.1l-5.6-2l-4.8,13.9l-2.8-1l4.8-13.8l-5.6-2l1.1-3.1L229.9,395.2z"/>
			<path class="st29" d="M266.7,407.7l8,0.1l-0.1,5.5c0,3-3.4,5-7.7,5c-4.5-0.1-9.2-3.3-9.1-9c0.1-4.9,4-8.8,9.5-8.7
				c2.8-0.1,5.5,0.9,7.6,2.7l-2.2,2.2c-1.3-1.6-3.2-2.5-5.2-2.5c-4.5-0.1-7.2,2.8-7.2,6.4c-0.1,3.3,2.5,6.4,6.8,6.4
				c2.9,0,5.1-1.3,5.1-2.7v-1.9l-5.6-0.1L266.7,407.7z"/>
			<path class="st29" d="M293.3,398.4l0.4,2.4l-11.2,1.6l0.6,4.4l5.6-0.8l0.4,2.4l-5.6,0.8l0.7,5.1l11.6-1.7l0.4,2.4l-14.2,2
				l-2.4-16.8L293.3,398.4z"/>
			<path class="st29" d="M308.9,394.1c2.6-0.8,5.5-0.2,6.5,3.1c1.1,3.5-1,5.4-2.3,5.9l5.7,5.6l-3,1l-5.3-5.8l-6,1.8l2,6.8l-2.4,0.7
				l-4.9-16.3L308.9,394.1z M302.4,398.7l1.5,4.8l7.3-2.2c1.8-0.5,2.5-1.7,2-3.3c-0.5-1.8-2.1-1.9-3.5-1.5L302.4,398.7z"/>
			<path class="st29" d="M362,384l-2.6,2l-5.3-3.2l-6.3,4.5l1.2,6.2l-2.5,1.5l-3.6-18.3l3-2.1L362,384z M346.3,378.2l1.3,6.4
				l4.4-3.1L346.3,378.2z"/>
			<path class="st29" d="M355.9,365.6l12.2,13.1l-2,1.9l-12.1-13.1L355.9,365.6z"/>
			<path class="st29" d="M362.4,359.2l17,1.8l0,0l-10.2-9.3l1.9-2.1l13.3,12l-1.7,2.1l-16.5-1.1l0.2-0.2l9.7,8.8l-2,2l-13.3-12
				L362.4,359.2z"/>
			<polygon class="st29" points="334.4,382.6 332.1,383.8 331.7,395.8 321.7,389 319.6,390.1 327.1,405.5 329.3,404.4 324.1,393.5 
				324.1,393.6 334,400.3 334.3,388.3 334.5,388.2 340.2,398.8 342.4,397.6 			"/>
			<path class="st29" d="M169.5,360.7c-1.4-5.2-6.6-10.3-10.6-10.3c-0.9,0-1.7,0.3-2.4,0.8c-0.8,0.6-1.3,1.4-1.4,2.4
				c-0.1,1.9,0.5,3.7,1.6,5.1l1.8,2.4c1.4,1.9,2.8,3.8,2.5,5.4c-0.1,0.6-0.5,1.2-1,1.5c-0.3,0.2-0.7,0.3-1.1,0.3
				c-2.5,0-6.6-4.4-8.7-10.7v-0.1l-1.8,1.7l0,0l0,0c0.7,2.4,1.8,4.6,3.3,6.5c1.5,2.2,3.6,3.9,6.1,4.9c0.6,0.2,1.3,0.3,1.9,0.3
				c0.8,0,1.6-0.2,2.3-0.7c0.9-0.6,1.6-1.6,1.7-2.7c0.3-2-0.8-4.6-3.2-7.9l-1.6-2.1c-1.3-1.7-1.2-2.8-0.9-3.5c0.2-0.5,0.7-0.9,1.3-1
				h0.3c2.9,0,7,4.8,8.1,8.6v0.1h0.1C168.4,361.5,169.2,361.1,169.5,360.7l0.1,0.1L169.5,360.7z"/>
		</g>
		<path class="st30" d="M244.3,409.4l-6.5-1.4l0.8-3.3l6.5,1.5L244.3,409.4z"/>
		<path class="st31" d="M178.9,367.3l-17.2,8.1l1.9,1.7l0.4-0.1l0,0l5.6-2.8l6.1,5.1l-1.9,6h0.1v0.1l1.8,1.3l0,0v-0.2l0,0l0,0l0,0
			l5.4-17.6L178.9,367.3z M172.2,373.4l6-3.2l-2,6.6L172.2,373.4z"/>
		<polygon class="st31" points="192.6,377.8 190.4,376.4 190.4,376.4 190.4,376.4 180.8,391 182.9,392.3 182.9,392.3 182.9,392.3 
			183.1,392.2 183.1,392.2 		"/>
		<polygon class="st31" points="208.9,387.2 202.9,398.6 199.9,382.4 197.9,381.4 197.9,381.4 197.8,381.3 197.8,381.3 197.7,381.3 
			189.7,396.6 191.5,397.6 191.8,397.7 191.8,397.5 191.8,397.5 191.9,397.5 191.9,397.5 191.9,397.5 192,397.4 192,397.4 
			192,397.4 192.1,397.4 198.1,385.9 201.1,401.6 203.3,402.6 203.3,402.6 203.3,402.6 203.3,402.6 203.4,402.6 203.4,402.6 
			203.4,402.6 203.4,402.5 203.5,402.5 203.5,402.5 203.5,402.5 211.2,388.4 		"/>
		<polygon class="st31" points="215.9,390.3 215,392.8 220.9,394.7 216,408.3 216.1,408.4 216,408.5 218,409.1 218,409.1 218,409.1 
			218.1,408.9 218.1,408.9 218.1,408.9 218.2,408.9 222.8,395.3 228.5,397.3 228.5,397.2 228.6,397.3 228.6,397.1 228.6,397.1 
			228.6,397.1 228.7,397.1 229.4,395 215.9,390.3 		"/>
		<polygon class="st31" points="295.7,411.9 295.6,411.8 295.6,411.8 295.5,411.8 295.5,411.8 295.5,411.8 295.5,411.8 283.9,413.5 
			283.1,408.5 288.8,407.7 288.8,407.5 288.9,407.5 288.5,405.1 288.4,405.1 288.4,405.1 288.4,405.1 288.4,405.1 282.8,405.9 
			282.1,401.7 293.4,400 293.4,399.9 293.5,399.9 293.2,397.4 293.1,397.4 293.1,397.4 293,397.5 293,397.4 293,397.4 293,397.4 
			279.4,399.4 281.8,416.2 281.9,416.2 281.9,416.2 281.9,416.2 281.9,416.4 281.9,416.4 281.9,416.4 295.9,414.4 295.9,414.2 
			296,414.2 		"/>
		<path class="st31" d="M356.6,380.9l-11.4-6.9l-2.3,1.6l3.7,18.5l2.1-1.4l0.2-0.1l-1.2-6.2l6.3-4.6l5.3,3.2l0,0l1.9-1.3l0,0
			l0.1-0.1L356.6,380.9z M347.1,383.6l-1.5-6.6l6,3.4L347.1,383.6z"/>
		<polygon class="st31" points="355.9,365.6 354.1,367.3 365.8,379.6 365.9,379.6 365.9,379.6 367.4,378.3 367.4,378.3 367.5,378.2 
					"/>
		<polygon class="st31" points="383.7,361.1 371.1,349.5 369.4,351.4 379.7,360.3 362.5,359 362.5,359 361,360.8 373.9,372 
			373.9,372 373.9,372 374.9,370.7 374.9,370.7 375,370.5 365.5,361.6 382.3,362.6 382.3,362.6 382.4,362.6 383.6,361.2 
			383.6,361.2 		"/>
		<polygon class="st31" points="238.6,404.7 238,407.3 243.9,408.6 243.9,408.6 244,408.6 244,408.5 244,408.5 244,408.5 
			244.1,408.5 244.6,406 		"/>
		<path class="st31" d="M314.5,401c0.9-1.3,1.1-3,0.5-4.5c-0.3-1.3-1.2-2.5-2.4-3.1c-0.6-0.3-1.3-0.5-2-0.5c-0.7,0-1.4,0.1-2,0.3
			L299,396l3.1,10l1.9,6.4l0,0l0.2,0l0.1,0l1.7-0.6l-2.1-6.9l6.5-2.1l5.1,6l0,0l0.2-0.1v0l2-0.9l-5.4-5.8
			C313.2,402,313.9,401.6,314.5,401z M301.8,398l7.6-2.6c0.3-0.1,0.7-0.2,1-0.2c1.2,0,2.2,0.8,2.4,2c0,0.2,0.1,0.3,0.1,0.5
			c0.1,1.2-0.8,2.2-2.2,2.6l-7.5,2.3L301.8,398z"/>
		<path class="st31" d="M162.8,368.3c0.3-0.5,0.2-1.4,0.3-2c0.3-2-0.6-4.1-3-7.4l-1.6-2.1c-0.9-1-1.2-2.4-0.7-3.6
			c0.1-0.1,0.1-0.2,0.2-0.3c0.3-0.3,0.6-0.5,1.1-0.6h0.3c2.9,0,7.3,4.6,8.3,8.4v0.1l0,0l0,0l0.1-0.1c0.6-0.3,1.1-0.5,1.5-0.8h0.1
			v-0.1c0,0-0.1,0,0,0l0,0v-0.1c-1.1-4.3-4.7-8.4-8.2-9.8c-0.8-0.3-1.6-0.5-2.4-0.5l0,0c-0.9,0-1.7,0.3-2.4,0.8
			c-0.7,0.5-1.2,1.4-1.3,2.3c-0.1,0.4-0.1,0.8,0,1.2c0.4,1.7,1.1,3.2,2.2,4.5l1.5,2.3c1.2,1.6,2.1,2.2,2.2,3.6c0,0.4,0,0.8,0,1.2
			c-0.1,0.6-0.5,1.2-1,1.6c-0.4,0.2-0.8,0.3-1.2,0.3c-0.3,0-0.7-0.1-1-0.2c-2.5-1-5.8-5-7.6-10.4l-0.1-0.3l-0.1,0.1l-1.8,1.7h-0.1
			l0.1,0.2c0.9,2.2,2.1,4.4,3.4,6.4c1.9,2.5,3.8,4.2,5.8,4.8c0.6,0.2,1.3,0.3,1.9,0.3l0,0c0.8,0.1,1.6,0,2.4-0.4
			C162.1,369.2,162.5,368.8,162.8,368.3z"/>
		<path class="st31" d="M266.8,407.7L266.8,407.7v2.4l0,0v0.1h0.2l5.1,0.1l-0.1,1.8c0,1.4-2.1,2.8-5.1,2.7h-0.6
			c-1.9-0.2-3.7-1.1-5-2.6c-0.9-1-1.3-2.3-1.2-3.6c0-1.1,0.3-2.1,0.8-3c1.4-2.2,3.9-3.5,6.6-3.4c2,0,3.9,0.9,5.1,2.5l0,0l0.1-0.1
			c0,0,0.1,0.1,0.1,0.1l0,0l1.7-1.7l0,0l0.1-0.1c-0.3-0.2-0.6-0.6-1-0.9c-1.7-1.5-3.9-2.3-6.2-2.3l0,0H267l0,0
			c-5.4-0.1-9.4,3.8-9.5,8.7c0,0.4,0,0.8,0.1,1.1c0.4,5.1,4.8,8,9.1,8h0.2c3.2,0,5.8-1.1,6.9-2.9c0.4-0.6,0.6-1.4,0.6-2.1l0.1-4.6
			L266.8,407.7z"/>
		<polygon class="st31" points="333.9,381.7 331.6,382.8 331.3,395 321.3,388.1 319.2,389.2 323.5,397.8 326.8,404.6 326.9,404.5 
			326.9,404.6 328.1,404 328.8,403.5 323.5,392.4 333.5,399.2 333.5,399.2 333.6,399.2 333.6,399 333.6,399 333.7,399 333.7,399 
			334,389.5 334.1,387.5 334.1,387.5 339.9,398 340,397.9 340,397.9 340,397.9 340,397.9 341.7,396.7 		"/>
		<polygon class="st27" points="238.6,404.8 238,407.3 238,407.3 238,407.3 243.9,408.7 243.9,408.6 244,408.7 244,408.6 244,408.6 
			244.6,406.1 		"/>
		<path class="st27" d="M266.9,407.8h-0.2v2.4l0,0v0.2l5.4,0.1l-0.1,1.8c-0.1,1.5-2.1,2.8-5,2.8c-4.3-0.1-7.1-3-7-6.3
			c0-1.3,0.4-2.5,1.1-3.5c0.4-0.5,1-1,1.5-1.4c0.2-0.1,0.3-0.2,0.5-0.3c1.3-0.7,2.7-1.1,4.2-1c2,0,3.9,0.8,5.2,2.4l0,0l0,0l0,0l0,0
			l1.7-1.7l0,0l0.1-0.1c-1.8-2-4.4-3.2-7.1-3.2H267c-5.4-0.1-9.4,3.8-9.5,8.7c0,0,0,0.1,0,0.1s0,0,0,0.1c-0.1,5.8,4.7,8.9,9.2,9
			c1.7,0.1,3.3-0.3,4.8-1c0.4-0.2,0.7-0.4,1-0.7c0.5-0.4,0.9-0.8,1.2-1.3c0.4-0.6,0.6-1.4,0.6-2.1l0.1-4.5l-7.6-0.1L266.9,407.8z"/>
		<path class="st27" d="M162.3,369c0.5-0.8,0.8-1.6,0.8-2.5c0.3-2-0.6-4.1-3-7.4l-1.6-2.1c-0.9-1-1.2-2.4-0.7-3.6
			c0.1-0.2,0.3-0.4,0.5-0.6c0.2-0.2,0.5-0.3,0.8-0.3h0.3c2.9,0,7.3,4.6,8.3,8.4v0.1l0,0l0,0l0.1,0c0.6-0.4,1.1-0.5,1.5-0.8h0.1
			c-0.6-2.1-1.6-4-2.9-5.7c-2.2-2.8-5.2-4.8-7.7-4.8c-0.9,0-1.7,0.3-2.4,0.8c-0.2,0.1-0.4,0.3-0.6,0.5c-0.3,0.4-0.5,0.8-0.7,1.3
			c-0.1,0.2-0.1,0.4-0.1,0.7c0,0.2,0,0.4,0,0.6c0.2,1.8,0.8,3.4,1.9,4.8l1.6,2.2c1.2,1.6,2.4,3.1,2.4,4.5c0,0.2,0,0.5-0.1,0.7
			c0,0.2-0.1,0.4-0.2,0.5c-0.1,0.3-0.3,0.5-0.5,0.7c-0.1,0.1-0.2,0.2-0.4,0.3c-0.3,0.2-0.7,0.3-1.1,0.3c-1.4,0-3.3-1.4-5.1-3.7
			c-1.6-2.1-2.8-4.4-3.6-6.9l-0.1-0.2l-1.9,1.8c0.7,2.2,1.7,4.3,3.1,6.2c1.9,2.5,4.2,4.5,6.2,5.1c0.6,0.2,1.3,0.3,1.9,0.3l0,0
			c0.8,0.1,1.6,0,2.4-0.4C161.9,369.4,162.1,369.2,162.3,369z"/>
		<polygon class="st27" points="211.1,388.4 211.1,388.4 211.1,388.4 208.9,387.3 208.9,387.3 208.9,387.3 208.9,387.3 208.9,387.3 
			202.8,398.9 199.9,382.6 199.9,382.5 199.9,382.5 199.9,382.5 199.9,382.5 197.8,381.4 197.8,381.4 197.8,381.4 197.7,381.5 
			197.7,381.5 189.8,396.6 189.8,396.6 189.8,396.6 189.8,396.7 189.8,396.7 189.8,396.7 191.9,397.6 192,397.5 192,397.5 
			198.1,385.8 201.2,401.8 203.3,402.7 203.4,402.6 203.5,402.6 211.2,388.5 211.1,388.5 		"/>
		<path class="st27" d="M181,369.3l-2.1-1.8l-17.1,8.1l1.8,1.6l6-2.7l6.1,5.2l-1.9,6l0,0l0,0l0,0v0.1l1.8,1.3v-0.2l0,0l0,0
			L181,369.3z M178.3,370.3l-2,6.6l-4.1-3.5L178.3,370.3z"/>
		<polygon class="st27" points="192.6,377.9 190.4,376.5 180.9,391 182.9,392.3 183,392.3 		"/>
		<polygon class="st27" points="215.8,390.4 215.1,392.7 215.1,392.8 220.9,394.8 216,408.5 216,408.5 216,408.5 216.1,408.6 
			216,408.6 218,409.2 218.1,409 218.1,409 218.1,409 218.1,409 222.8,395.4 228.5,397.4 228.6,397.2 228.6,397.3 228.6,397.2 
			228.7,397.2 229.4,395.1 215.8,390.4 		"/>
		<polygon class="st27" points="295.7,411.9 295.5,411.9 295.5,411.9 283.9,413.5 283.1,408.6 288.8,407.8 288.7,407.7 288.7,407.7 
			288.7,407.6 288.8,407.6 288.8,407.6 288.8,407.6 288.8,407.6 288.9,407.5 288.5,405.2 288.4,405.2 288.4,405.2 282.7,406 
			282.1,401.8 293.4,400.1 293.4,400.1 293.4,400.1 293.4,400 293.4,400 293.4,400 293.5,400 293.4,400 293.5,399.9 293.2,397.5 
			293,397.5 293,397.5 279.4,399.5 279.4,399.6 279.4,399.6 279.4,399.6 279.4,399.6 279.4,399.7 279.4,399.7 279.5,399.9 
			281.8,416.4 281.9,416.4 281.9,416.5 295.9,414.5 295.8,414.4 295.9,414.4 295.9,414.4 296,414.4 295.9,414.3 296,414.3 		"/>
		<path class="st27" d="M312.4,402.3c0.8-0.2,1.5-0.7,2-1.3c0.9-1.3,1.2-3,0.6-4.5c-0.3-1.3-1-2.3-2.1-3c-1.3-0.7-2.8-0.8-4.2-0.3
			l-9.6,2.9l1.4,4.7l3.6,11.7l0.8-0.2l1.2-0.3l-2-6.8l6.5-2.1l5.1,6l2-0.9l0,0l0.2-0.1L312.4,402.3z M309.3,395.5
			c1.3-0.5,2.9,0.1,3.4,1.5c0,0.1,0.1,0.2,0.1,0.3c0,0.2,0.1,0.3,0.1,0.5c0,0.2,0,0.3,0,0.5c0,0.2,0,0.3-0.1,0.5
			c-0.4,0.9-1.2,1.5-2.1,1.7l-7.6,2.3l-1.4-4.6L309.3,395.5z"/>
		<path class="st27" d="M345.3,374.1l-2.3,1.6l3.6,18.5l2-1.3l0.1-0.1l-1.2-6.2l6.3-4.6l5.3,3.2l1.9-1.3h0l0.2-0.1L345.3,374.1z
			 M347.1,383.7l-1.5-6.6l6,3.5L347.1,383.7z"/>
		<polygon class="st27" points="356,365.6 354.2,367.3 365.8,379.7 367.4,378.4 367.4,378.4 367.5,378.3 		"/>
		<polygon class="st27" points="383.7,361.2 371.1,349.6 369.5,351.4 379.6,360.4 362.6,359.1 361,360.8 373.8,372.1 374.9,370.8 
			374.8,370.8 375,370.6 365.4,361.7 382.3,362.8 383.6,361.3 383.6,361.3 		"/>
		<polygon class="st27" points="333.9,381.8 331.7,382.9 331.4,395.2 325.3,391.1 321.3,388.2 321.1,388.3 319.3,389.3 319.2,389.3 
			319.3,389.4 319.3,389.4 326.8,404.7 328.6,403.6 328.6,403.6 328.7,403.6 323.4,392.4 328,395.6 333.5,399.3 333.5,399.2 
			333.6,399.2 333.6,399.1 333.6,399.1 333.6,399.1 333.6,399.1 333.9,390.8 334.1,387.3 335.2,389.5 339.9,398 339.9,398 
			339.9,398 340,398 340,398 341.4,396.9 341.5,396.8 341.5,396.8 341.6,396.7 		"/>
		
			<radialGradient id="SVGID_23_" cx="183.0509" cy="124.1888" r="256.68" gradientTransform="matrix(0.87 0 0 -0.87 0.21 468.3641)" gradientUnits="userSpaceOnUse">
			<stop  offset="0" style="stop-color:#D1D3D4"/>
			<stop  offset="0.37" style="stop-color:#CED0D1"/>
			<stop  offset="0.69" style="stop-color:#C3C5C7"/>
			<stop  offset="1" style="stop-color:#B1B3B6"/>
			<stop  offset="1" style="stop-color:#B1B3B6"/>
		</radialGradient>
		<path class="st32" d="M175.7,387.3l-2.2-1.6l1.8-6.1l-5.8-4.9l-5.8,2.7l-1.9-1.8l17-8l2.1,1.8L175.7,387.3z M177.9,370.8l-5.9,2.8
			l4.1,3.5L177.9,370.8z"/>
		
			<radialGradient id="SVGID_24_" cx="133.89" cy="147.3498" r="256.68" gradientTransform="matrix(1 0 0 -1 10.01 542.7997)" gradientUnits="userSpaceOnUse">
			<stop  offset="0" style="stop-color:#D1D3D4"/>
			<stop  offset="0.37" style="stop-color:#CED0D1"/>
			<stop  offset="0.69" style="stop-color:#C3C5C7"/>
			<stop  offset="1" style="stop-color:#B1B3B6"/>
			<stop  offset="1" style="stop-color:#B1B3B6"/>
		</radialGradient>
		<path class="st33" d="M192.5,378l-9.5,14.4l-2-1.3l9.5-14.4L192.5,378z"/>
		
			<radialGradient id="SVGID_25_" cx="133.89" cy="147.3498" r="256.67" gradientTransform="matrix(1 0 0 -1 10.01 542.7997)" gradientUnits="userSpaceOnUse">
			<stop  offset="0" style="stop-color:#D1D3D4"/>
			<stop  offset="0.37" style="stop-color:#CED0D1"/>
			<stop  offset="0.69" style="stop-color:#C3C5C7"/>
			<stop  offset="1" style="stop-color:#B1B3B6"/>
			<stop  offset="1" style="stop-color:#B1B3B6"/>
		</radialGradient>
		<path class="st34" d="M200,382.7l2.9,16.1l0,0l6-11.4l2.2,1.1l-7.9,15.1l-2.1-1l-3-16.3l0,0l-6.1,11.6l-2.1-1.2l7.9-15.1
			L200,382.7z"/>
		
			<radialGradient id="SVGID_26_" cx="133.89" cy="147.3498" r="256.68" gradientTransform="matrix(1 0 0 -1 10.01 542.7997)" gradientUnits="userSpaceOnUse">
			<stop  offset="0" style="stop-color:#D1D3D4"/>
			<stop  offset="0.37" style="stop-color:#CED0D1"/>
			<stop  offset="0.69" style="stop-color:#C3C5C7"/>
			<stop  offset="1" style="stop-color:#B1B3B6"/>
			<stop  offset="1" style="stop-color:#B1B3B6"/>
		</radialGradient>
		<path class="st35" d="M229.4,395.3l-0.8,2.3l-5.6-2l-4.8,13.9l-2.3-0.8l4.8-13.9l-5.6-1.9l0.8-2.3L229.4,395.3z"/>
		
			<radialGradient id="SVGID_27_" cx="133.89" cy="147.3498" r="256.67" gradientTransform="matrix(1 0 0 -1 10.01 542.7997)" gradientUnits="userSpaceOnUse">
			<stop  offset="0" style="stop-color:#D1D3D4"/>
			<stop  offset="0.37" style="stop-color:#CED0D1"/>
			<stop  offset="0.69" style="stop-color:#C3C5C7"/>
			<stop  offset="1" style="stop-color:#B1B3B6"/>
			<stop  offset="1" style="stop-color:#B1B3B6"/>
		</radialGradient>
		<path class="st36" d="M266.7,408l7.8,0.1l-0.1,4.5c-0.1,3-3.4,5-7.7,5c-4.5-0.1-9.2-3.3-9.1-9c0.1-4.9,4-8.8,9.5-8.7
			c2.7,0,5.3,1.2,7.1,3.2l-1.7,1.7c-1.3-1.6-3.2-2.5-5.2-2.5c-4.5-0.1-7.2,2.8-7.2,6.4c-0.1,3.3,2.5,6.4,6.8,6.4
			c3,0,5.1-1.3,5.1-2.7v-1.9l-5.3-0.1L266.7,408z"/>
		
			<radialGradient id="SVGID_28_" cx="133.89" cy="147.3498" r="256.67" gradientTransform="matrix(1 0 0 -1 10.01 542.7997)" gradientUnits="userSpaceOnUse">
			<stop  offset="0" style="stop-color:#D1D3D4"/>
			<stop  offset="0.37" style="stop-color:#CED0D1"/>
			<stop  offset="0.69" style="stop-color:#C3C5C7"/>
			<stop  offset="1" style="stop-color:#B1B3B6"/>
			<stop  offset="1" style="stop-color:#B1B3B6"/>
		</radialGradient>
		<path class="st37" d="M293.2,397.7l0.4,2.4l-11.4,1.6l0.6,4.4l5.7-0.8l0.4,2.4l-5.7,0.8l0.7,5.1l11.8-1.7l0.4,2.4l-14.2,2
			l-2.4-16.8L293.2,397.7z"/>
		
			<radialGradient id="SVGID_29_" cx="133.89" cy="147.3498" r="256.67" gradientTransform="matrix(1 0 0 -1 10.01 542.7997)" gradientUnits="userSpaceOnUse">
			<stop  offset="0" style="stop-color:#D1D3D4"/>
			<stop  offset="0.37" style="stop-color:#CED0D1"/>
			<stop  offset="0.69" style="stop-color:#C3C5C7"/>
			<stop  offset="1" style="stop-color:#B1B3B6"/>
			<stop  offset="1" style="stop-color:#B1B3B6"/>
		</radialGradient>
		<path class="st38" d="M308.7,393.4c2.6-0.8,5.5-0.2,6.5,3.1c1.1,3.5-1,5.4-2.3,5.9l5.3,5.7l-2.6,0.9l-5.3-5.8l-6,1.8l2,6.8
			l-2.3,0.7l-4.9-16.3L308.7,393.4z M302.1,397.9l1.4,4.8l7.3-2.2c1.8-0.5,2.5-1.7,2-3.3c-0.6-1.9-2.1-1.9-3.5-1.5L302.1,397.9z"/>
		
			<radialGradient id="SVGID_30_" cx="133.89" cy="147.3498" r="256.67" gradientTransform="matrix(1 0 0 -1 10.01 542.7997)" gradientUnits="userSpaceOnUse">
			<stop  offset="0" style="stop-color:#D1D3D4"/>
			<stop  offset="0.37" style="stop-color:#CED0D1"/>
			<stop  offset="0.69" style="stop-color:#C3C5C7"/>
			<stop  offset="1" style="stop-color:#B1B3B6"/>
			<stop  offset="1" style="stop-color:#B1B3B6"/>
		</radialGradient>
		<path class="st39" d="M361.4,383.6l-2.1,1.7l-5.2-3.2l-6.2,4.4l1.2,6.1l-2.2,1.4l-3.6-18.3l2.2-1.6L361.4,383.6z M346,377.5
			l1.3,6.4l4.4-3.1L346,377.5z"/>
		
			<radialGradient id="SVGID_31_" cx="133.89" cy="147.3498" r="256.67" gradientTransform="matrix(1 0 0 -1 10.01 542.7997)" gradientUnits="userSpaceOnUse">
			<stop  offset="0" style="stop-color:#D1D3D4"/>
			<stop  offset="0.37" style="stop-color:#CED0D1"/>
			<stop  offset="0.69" style="stop-color:#C3C5C7"/>
			<stop  offset="1" style="stop-color:#B1B3B6"/>
			<stop  offset="1" style="stop-color:#B1B3B6"/>
		</radialGradient>
		<path class="st40" d="M356,365.7l11.6,12.5l-1.8,1.6l-11.6-12.5L356,365.7z"/>
		
			<radialGradient id="SVGID_32_" cx="133.89" cy="147.3498" r="256.67" gradientTransform="matrix(1 0 0 -1 10.01 542.7997)" gradientUnits="userSpaceOnUse">
			<stop  offset="0" style="stop-color:#D1D3D4"/>
			<stop  offset="0.37" style="stop-color:#CED0D1"/>
			<stop  offset="0.69" style="stop-color:#C3C5C7"/>
			<stop  offset="1" style="stop-color:#B1B3B6"/>
			<stop  offset="1" style="stop-color:#B1B3B6"/>
		</radialGradient>
		<path class="st41" d="M362.8,359.1l16.4,1.1l0,0l-9.6-8.6l1.6-1.8l12.6,11.4l-1.4,1.8l-16.5-1.1l0,0l9.7,8.8l-1.7,1.8l-12.7-11.4
			L362.8,359.1z"/>
		
			<radialGradient id="SVGID_33_" cx="182.9409" cy="124.1888" r="256.8" gradientTransform="matrix(0.87 0 0 -0.87 0.21 468.3641)" gradientUnits="userSpaceOnUse">
			<stop  offset="0" style="stop-color:#D1D3D4"/>
			<stop  offset="0.37" style="stop-color:#CED0D1"/>
			<stop  offset="0.69" style="stop-color:#C3C5C7"/>
			<stop  offset="1" style="stop-color:#B1B3B6"/>
			<stop  offset="1" style="stop-color:#B1B3B6"/>
		</radialGradient>
		<polygon class="st42" points="334,381.9 331.8,383 331.5,395.1 321.5,388.3 319.3,389.4 326.7,404.7 329,403.7 323.8,392.8 
			323.8,392.8 333.7,399.5 334.1,387.6 334.1,387.6 339.9,398.1 342,396.9 		"/>
		
			<radialGradient id="SVGID_34_" cx="133.89" cy="147.3498" r="256.68" gradientTransform="matrix(1 0 0 -1 10.01 542.7997)" gradientUnits="userSpaceOnUse">
			<stop  offset="0" style="stop-color:#D1D3D4"/>
			<stop  offset="0.37" style="stop-color:#CED0D1"/>
			<stop  offset="0.69" style="stop-color:#C3C5C7"/>
			<stop  offset="1" style="stop-color:#B1B3B6"/>
			<stop  offset="1" style="stop-color:#B1B3B6"/>
		</radialGradient>
		<path class="st43" d="M169.3,360c-1.4-5.2-6.7-10.3-10.6-10.3c-0.8,0-1.7,0.3-2.4,0.8c-0.8,0.6-1.3,1.4-1.4,2.4
			c-0.1,1.8,0.5,3.7,1.6,5.1l1.8,2.4c1.4,1.9,2.8,3.8,2.5,5.4c-0.1,0.6-0.5,1.2-1,1.5c-0.3,0.2-0.7,0.3-1.1,0.3
			c-2.5,0-6.6-4.4-8.7-10.7v-0.1l-1.8,1.7l0,0l0,0c0.7,2.4,1.8,4.6,3.3,6.5c1.5,2.2,3.6,3.9,6.1,4.9c0.6,0.2,1.3,0.3,1.9,0.3
			c0.8,0,1.6-0.2,2.3-0.7c0.9-0.6,1.6-1.6,1.7-2.7c0.3-2-0.8-4.6-3.2-7.9l-1.6-2.1c-1.3-1.7-1.2-2.8-0.9-3.5c0.2-0.5,0.7-0.9,1.3-1
			h0.3c2.9,0,7.1,4.8,8.1,8.6v0.1l0.1,0L169.3,360l0.1,0L169.3,360z"/>
		
			<radialGradient id="SVGID_35_" cx="133.88" cy="147.3598" r="256.69" gradientTransform="matrix(1 0 0 -1 10.01 542.7997)" gradientUnits="userSpaceOnUse">
			<stop  offset="0" style="stop-color:#D1D3D4"/>
			<stop  offset="0.37" style="stop-color:#CED0D1"/>
			<stop  offset="0.69" style="stop-color:#C3C5C7"/>
			<stop  offset="1" style="stop-color:#B1B3B6"/>
			<stop  offset="1" style="stop-color:#B1B3B6"/>
		</radialGradient>
		<path class="st44" d="M244,408.7l-6-1.3l0.6-2.4l6.1,1.4L244,408.7z"/>
		<path class="st45" d="M0,0v532.5h532.5V0H0z M96.3,513.7c-0.8-0.2-1.6-0.3-2.3-0.3c1.4,3-0.1,7.3-4.3,7.2
			c-12.6-0.4-24.7,3.2-37.2,3.9c-5.6,0.3-11.3,0.2-17,0c-2.2,1.4-4.4,2.6-7.2,3.2c-1.4,0.3-3.1,0.1-4.3-0.8
			c-0.1,0.1-0.2,0.1-0.3,0.1c-2.4,0.9-5.2-0.9-6-3.1c-0.9,0-1.8,0-2.6,0c-3.1,0-5.9-3.2-4.8-6.3c1.4-4.2,4.4-8.5,9.4-6.9
			c1.9,0.6,3.4,1.9,4.5,3.4c3.1,0.1,6.3,0.2,9.4,0.4c2.3-1.4,4.6-2.7,7.4-3.3c4.6-0.9,9,0.3,13.2-2c5.9-3.1,12.1-6.7,18.1-5.4
			c1.5-2.2,4.7-2.3,6.9-1c2.4-0.3,4.7,0.6,6.3,2.5c4.3-1.9,8.6-2.7,13.6-1.3C105.2,505.8,102.5,515.5,96.3,513.7z M485.7,292.6
			c-6.4,0-6.4-10,0-10C492.1,282.6,492.1,292.6,485.7,292.6z"/>
	</g>
</g>
</svg>
